# xmcd CD database file
#
# Track frame offsets:
#	150
#	26783
#	45839
#	68046
#	86726
#	105257
#	121240
#	136772
#	151403
#	164686
#
# Disc length: 2546 seconds
#
# Revision: 2
# Processed by: cddbd v1.5.2PL0 Copyright (c) Steve Scherf et al.
# Submitted via: CDex 1.50Beta7
#
DISCID=7609f00a
DTITLE=Western Union  - Auf der Autobahn
DYEAR=1995
DGENRE=Country
TTITLE0=Transitcowboy
TTITLE1=Unter allen Männern bin ich der LKW
TTITLE2=Wir gehören doch zusammen
TTITLE3=Ich kann lieben aber zeigen kann ich`s nicht
TTITLE4=Ich seh die große Welt nur durch die Windschutzscheibe
TTITLE5=Eigentlich brauch ich nur dich
TTITLE6=Auf der Autobahn
TTITLE7=Frei wie der Adler
TTITLE8=Highway Driver
TTITLE9=Truckdriver Blues
EXTD=YEAR: 1995
EXTT0=
EXTT1=
EXTT2=
EXTT3=
EXTT4=
EXTT5=
EXTT6=
EXTT7=
EXTT8=
EXTT9=
PLAYORDER=
